<?xml version="1.0" standalone="no"?>
<!DOCTYPE svg PUBLIC "-//W3C//DTD SVG 20010904//EN"
 "http://www.w3.org/TR/2001/REC-SVG-20010904/DTD/svg10.dtd">
<svg version="1.0" xmlns="http://www.w3.org/2000/svg"
 width="2476.000000pt" height="2476.000000pt" viewBox="0 0 2476.000000 2476.000000"
 preserveAspectRatio="xMidYMid meet">
<metadata>
Created by potrace 1.14, written by Peter Selinger 2001-2017
</metadata>
<g transform="translate(0.000000,2476.000000) scale(0.100000,-0.100000)"
fill="#000000" stroke="none">
<path d="M11899 22926 c-2 -2 -80 -7 -172 -11 -93 -3 -176 -8 -185 -9 -9 -2
-66 -7 -127 -11 -60 -3 -123 -8 -140 -10 -16 -2 -57 -7 -90 -10 -33 -3 -98
-10 -145 -16 -47 -5 -107 -12 -135 -15 -27 -3 -81 -10 -120 -15 -38 -6 -88
-12 -110 -15 -38 -5 -464 -77 -530 -89 -328 -62 -856 -192 -1150 -285 -509
-161 -865 -294 -1291 -481 -180 -80 -620 -295 -769 -377 -172 -94 -218 -120
-354 -200 -462 -270 -901 -573 -1336 -923 -230 -185 -325 -267 -584 -504 -174
-158 -529 -522 -737 -754 -21 -24 -44 -49 -49 -55 -6 -6 -67 -78 -136 -161
-449 -538 -814 -1069 -1151 -1675 -215 -386 -415 -815 -597 -1276 l-20 -52
112 35 c104 32 778 244 1222 384 105 33 226 72 270 85 44 14 134 42 200 63
154 50 291 93 955 301 300 94 599 188 665 209 66 21 185 59 265 84 80 25 233
74 340 107 107 34 317 100 465 147 149 47 311 98 360 113 50 16 243 76 430
135 187 59 437 138 555 175 118 37 225 70 238 74 21 7 19 2 -16 -51 -88 -132
-107 -165 -177 -308 -68 -137 -165 -400 -180 -485 -3 -19 -10 -54 -16 -78 -5
-23 -12 -59 -15 -78 -3 -20 -7 -44 -9 -53 -19 -100 -25 -216 -25 -542 -1 -270
-3 -297 -18 -302 -9 -3 -46 -14 -82 -25 -36 -11 -189 -59 -340 -107 -301 -95
-485 -153 -985 -310 -297 -93 -799 -252 -1010 -319 -127 -40 -1153 -363 -1340
-421 -93 -29 -222 -70 -285 -90 -63 -20 -142 -45 -175 -55 -33 -10 -109 -34
-170 -53 -60 -20 -270 -86 -465 -147 -195 -61 -431 -135 -525 -165 -202 -64
-509 -161 -656 -207 l-106 -33 -23 -155 c-12 -85 -24 -164 -26 -175 -3 -18
-28 -232 -39 -330 -6 -54 -13 -143 -20 -245 -4 -47 -8 -98 -10 -115 -9 -70
-19 -399 -19 -645 0 -224 11 -651 17 -656 2 -2 428 131 882 276 217 69 419
132 495 155 92 28 202 63 475 150 116 37 244 77 285 90 108 33 1119 351 1225
385 50 16 221 70 380 120 160 50 367 115 460 145 94 29 244 77 335 105 91 29
212 67 270 85 58 19 193 61 300 95 107 34 242 76 300 95 569 180 844 265 856
265 10 0 13 -188 13 -873 l0 -873 -267 -84 c-147 -46 -325 -102 -397 -125 -71
-23 -177 -57 -235 -74 -103 -32 -506 -159 -845 -266 -93 -30 -372 -117 -620
-195 -247 -77 -461 -145 -475 -150 -14 -5 -92 -30 -175 -55 -82 -26 -233 -73
-335 -105 -194 -62 -355 -113 -910 -287 l-335 -105 -50 27 c-27 15 -106 56
-175 92 -69 37 -152 81 -184 100 -77 45 -439 137 -501 129 -22 -3 -133 -6
-247 -7 -219 -2 -296 -11 -442 -54 -163 -47 -363 -140 -561 -260 -472 -285
-758 -739 -840 -1330 -23 -161 -14 -467 19 -635 63 -332 205 -642 404 -879
288 -344 674 -558 1167 -647 108 -20 404 -26 525 -11 434 53 838 251 1147 562
158 159 260 305 373 529 l45 90 310 97 c171 54 519 163 775 244 256 80 537
169 625 196 88 28 243 77 345 109 520 166 1842 580 1850 580 5 0 9 -366 10
-842 0 -464 2 -856 3 -873 l2 -29 -275 -87 c-151 -48 -799 -253 -1440 -454
-641 -202 -1226 -386 -1300 -409 -74 -24 -397 -126 -717 -227 -321 -100 -583
-186 -583 -190 0 -13 294 -394 416 -539 242 -286 362 -417 647 -705 170 -172
332 -326 455 -435 631 -556 1277 -1015 1992 -1415 212 -118 686 -354 910 -452
1142 -502 2345 -812 3560 -918 96 -8 198 -17 225 -20 231 -20 1103 -28 1430
-12 454 22 1017 88 1478 173 2483 457 4729 1724 6357 3584 474 542 898 1138
1242 1745 143 252 297 552 398 775 29 63 63 140 77 170 101 222 249 611 351
920 280 851 441 1709 493 2630 12 225 17 796 6 806 -6 6 -204 -54 -1077 -329
-96 -31 -341 -108 -545 -172 -203 -64 -491 -155 -640 -202 -148 -47 -389 -122
-535 -168 -924 -291 -1430 -450 -2080 -655 -404 -127 -978 -308 -1275 -402
-297 -93 -945 -297 -1440 -453 -495 -156 -1143 -360 -1440 -453 -297 -94 -868
-274 -1270 -400 -401 -127 -811 -256 -910 -287 -250 -78 -495 -156 -731 -231
-111 -35 -207 -64 -213 -64 -8 0 -11 237 -11 874 0 824 1 875 18 880 21 6 683
214 1042 327 52 17 122 39 155 49 157 48 241 75 510 160 629 199 862 272 905
285 25 7 189 59 365 114 401 128 521 166 1080 341 248 77 477 150 510 160 199
64 795 252 950 300 65 20 190 60 810 256 220 69 416 130 435 136 19 5 55 16
80 25 44 14 647 204 840 264 52 16 129 41 170 54 180 58 778 246 975 306 72
22 155 49 185 59 30 10 123 39 205 65 83 26 233 73 335 105 217 69 663 209
873 275 l147 46 58 -34 c222 -134 483 -227 749 -267 181 -27 461 -22 633 11
690 134 1250 621 1467 1274 70 210 88 326 88 575 0 133 -6 244 -14 290 -97
552 -332 974 -691 1241 -100 74 -195 131 -375 224 -82 42 -157 83 -165 90 -8
7 -108 36 -221 64 -151 37 -218 49 -250 45 -24 -3 -143 -6 -264 -8 -285 -3
-401 -28 -654 -140 -505 -222 -835 -535 -1022 -969 l-48 -110 -203 -64 c-112
-35 -275 -87 -363 -114 -88 -28 -207 -66 -265 -84 -58 -19 -384 -122 -725
-229 -341 -107 -658 -207 -705 -221 -47 -15 -184 -58 -304 -96 -121 -38 -221
-67 -224 -64 -3 2 -6 312 -7 687 -2 376 -5 692 -8 704 -3 11 -8 45 -11 75 -5
46 -26 159 -43 235 -5 24 -16 20 312 123 88 27 261 82 385 122 124 39 245 77
270 84 25 8 95 29 155 48 61 19 234 74 385 122 151 47 358 112 460 145 334
106 459 145 938 295 259 82 472 151 472 154 -1 13 -368 522 -389 541 -3 3 -20
23 -36 45 -64 86 -266 328 -404 485 -189 213 -285 314 -514 541 l-188 186 -87
-27 c-48 -16 -240 -76 -427 -135 -402 -126 -613 -193 -985 -310 -478 -151
-999 -315 -1165 -367 -173 -54 -261 -81 -487 -153 l-148 -47 -102 65 c-462
289 -989 524 -1524 678 -96 28 -183 52 -192 54 -9 2 -75 18 -147 35 -159 38
-343 74 -488 97 l-108 17 163 52 c90 29 244 78 343 109 339 106 470 148 590
186 66 21 280 88 475 149 195 62 445 140 555 175 110 35 274 87 365 115 195
61 275 87 555 175 116 37 244 77 285 90 124 38 915 287 917 289 3 2 -238 154
-271 172 -12 6 -39 22 -61 36 -96 60 -408 230 -620 338 -747 379 -1513 666
-2320 870 -206 52 -553 130 -645 145 -19 3 -69 12 -110 20 -62 12 -261 45
-360 60 -14 2 -45 6 -70 10 -25 4 -56 8 -70 10 -31 5 -270 34 -330 40 -25 2
-88 9 -140 14 -95 10 -147 15 -315 26 -49 3 -119 8 -155 11 -79 7 -1055 16
-1061 10z m1246 -4760 c50 -4 101 -8 115 -10 14 -2 45 -7 70 -10 42 -5 98 -16
195 -37 71 -15 177 -48 279 -86 l100 -37 -100 -32 c-82 -26 -1131 -357 -1399
-441 -44 -14 -127 -40 -185 -58 -503 -161 -1034 -325 -1038 -320 -19 19 45
217 102 310 179 297 612 566 1076 669 63 14 135 28 160 31 25 3 61 8 80 10 19
3 73 7 120 11 47 3 86 7 87 8 4 3 258 -3 338 -8z m1541 -2676 l-1 -460 45 5
c25 2 81 7 125 10 261 20 325 25 375 30 25 3 79 7 120 10 84 6 192 14 260 20
25 2 79 7 120 10 41 3 100 7 130 10 30 2 87 7 125 10 39 3 93 7 120 10 67 7
176 15 255 20 36 2 88 7 115 9 28 3 84 8 125 11 41 3 98 7 125 10 28 2 84 6
125 10 41 3 100 7 130 10 30 3 89 8 130 11 41 3 95 7 120 9 25 2 79 7 120 10
41 3 100 7 130 10 30 3 87 7 125 10 76 6 132 11 240 20 86 7 143 12 260 21 50
3 99 8 109 10 51 9 -11 -17 -114 -49 -137 -43 -668 -210 -760 -240 -36 -11
-70 -21 -76 -23 -6 -1 -90 -27 -185 -57 -161 -51 -593 -188 -924 -292 -77 -25
-448 -142 -825 -261 -377 -118 -705 -222 -730 -229 -39 -11 -516 -162 -880
-277 -69 -22 -154 -48 -190 -59 -36 -11 -112 -35 -170 -54 -123 -39 -352 -112
-715 -225 -143 -45 -300 -94 -350 -110 -49 -16 -171 -54 -270 -85 -99 -31
-198 -62 -220 -70 -22 -7 -107 -34 -190 -60 -82 -25 -212 -66 -289 -91 -76
-24 -142 -44 -147 -44 -5 0 -9 379 -9 875 l0 874 133 41 c72 23 157 50 187 60
30 10 123 39 205 65 83 25 233 73 335 105 102 32 424 133 715 225 292 92 622
196 735 232 113 36 246 78 295 93 103 31 909 287 911 289 1 1 1 -206 0 -459z"/>
</g>
</svg>
